{"title":"Hardcore Henry (2015) HQ 1080p Blu-ray x264 DTS-HDMA-DDR","uid":15334943,"size":10430501298,"categoryP":"video","categoryS":"hd___movies","magnet":"?xt=urn:btih:5a96aed16889583f2b357aff806765d73113840c&amp;dn=Hardcore+Henry+%282015%29+HQ+1080p+Blu-ray+x264+DTS-HDMA-DDR&amp;tr=udp%3A%2F%2Ftracker.leechers-paradise.org%3A6969&amp;tr=udp%3A%2F%2Fzer0day.ch%3A1337&amp;tr=udp%3A%2F%2Fopen.demonii.com%3A1337&amp;tr=udp%3A%2F%2Ftracker.coppersurfer.tk%3A6969&amp;tr=udp%3A%2F%2Fexodus.desync.com%3A6969","seeders":18,"leechers":5,"uploader":"SaM","files":4,"time":1468776310,"description":"- HollyWooD Movie-\r\n\r\nHardcore Henry\r\n\r\nHQ 1080P / x264 / DTS-HDMA 5.1\r\n\r\nEnglish, Spanish &amp; French subtitle(s) \r\n \nhttp://extraimago.com/image/aVAk \nhttp://extraimago.com/image/aVAo \nhttp://extraimago.com/image/aVAt \nhttp://extraimago.com/image/aVAx \nhttp://extraimago.com/image/aVA6 \nhttp://extraimago.com/image/aVAV\r\n\r\nSource : *** IPT Blu-ray CCE ***\r\nFormat : Matroska\r\nFile size : 9.61 GiB\r\nDuration : 1h 36mn\r\nOverall bit rate : 14.2 Mbps\r\nEncoded date : UTC 2016-07-15 20:22:23\r\n\r\n\r\n\r\nVideo\r\nFormat : AVC\r\nFormat/Info : Advanced Video Codec\r\nFormat profile :   \r\nDuration : 1h 36mn\r\nBit rate : 10 000 Kbps\r\nWidth : 1 920 pixels\r\nHeight : 1 040 pixels\r\nDisplay aspect ratio : 1.85:1\r\nFrame rate mode : Constant\r\nFrame rate : 23.976 (24000/1001) fps\r\nColor space : YUV\r\nChroma subsampling : 4:2:0\r\nBit depth : 8 bits\r\nScan type : Progressive\r\nBits/(Pixel*Frame) : 0.209\r\nStream size : 6.73 GiB (70%)\r\nLanguage : English\r\nDefault : Yes\r\nForced : No\r\nColor range : Limited\r\nColor primaries : BT.709\r\n\r\nAudio\r\nFormat : DTS\r\nFormat/Info : Digital Theater Systems\r\nFormat profile : MA / Core\r\nBit rate mode : Variable / Constant\r\nDuration : 1h 36mn\r\nBit rate mode : Variable / Constant\r\nBit rate : 4 256 Kbps / 1 509 Kbps\r\nChannel(s) : 6 channels\r\nChannel positions : Front: L C R, Side: L R, LFE\r\nSampling rate : 48.0 KHz\r\nFrame rate : 93.750 fps (512 spf)\r\nBit depth : 24 bits\r\nCompression mode : Lossless / Lossy\r\nStream size : 2.88 GiB (30%)\r\nLanguage : English\r\nDefault : Yes\r\nForced : No\r\n\r\nChapters : YES\r\n\r\nSample : Included\r\n\r\nA DDR Rxclusive Encode","torrent":{"xt":"urn:btih:5a96aed16889583f2b357aff806765d73113840c","amp;dn":"Hardcore+Henry+%282015%29+HQ+1080p+Blu-ray+x264+DTS-HDMA-DDR","amp;tr":["udp%3A%2F%2Ftracker.leechers-paradise.org%3A6969","udp%3A%2F%2Fzer0day.ch%3A1337","udp%3A%2F%2Fopen.demonii.com%3A1337","udp%3A%2F%2Ftracker.coppersurfer.tk%3A6969","udp%3A%2F%2Fexodus.desync.com%3A6969"],"infoHash":"5a96aed16889583f2b357aff806765d73113840c","infoHashBuffer":{"type":"Buffer","data":[90,150,174,209,104,137,88,63,43,53,122,255,128,103,101,215,49,19,132,12]},"announce":[],"urlList":[]}}